<svg xmlns="http://www.w3.org/2000/svg" viewBox="0 0 114.36781311035156 19.000001907348633" width="114.36781311035156" height="19.000001907348633">
  <path d="M4.62000036239624 19.000001907348633 C3.366666793823242 19.000001907348633 2.2799999713897705 18.78000259399414 1.3600000143051147 18.340002059936523 C0.45333331823349 17.9133358001709 0 17.25333595275879 0 16.360002517700195 C0 15.826668739318848 0.2199999988079071 15.3533353805542 0.6600000262260437 14.94000244140625 C1.1133333444595337 14.5266695022583 1.68666672706604 14.186668395996094 2.380000114440918 13.920001983642578 C3.073333501815796 13.640002250671387 3.8600001335144043 13.393333435058594 4.740000247955322 13.180000305175781 C4.913333415985107 13.126667022705078 5.053333759307861 13.093335151672363 5.160000801086426 13.080001831054688 L5.5400004386901855 13.480001449584961 C4.953333854675293 13.666667938232422 4.473333835601807 13.860001564025879 4.100000381469727 14.060001373291016 C3.7266671657562256 14.260001182556152 3.440000057220459 14.486668586730957 3.240000009536743 14.740001678466797 C3.0399999618530273 14.980001449584961 2.940000057220459 15.246667861938477 2.940000057220459 15.540000915527344 C2.940000057220459 15.953333854675293 3.126666784286499 16.240001678466797 3.5 16.400001525878906 C3.886666774749756 16.573335647583008 4.393333911895752 16.660001754760742 5.02000093460083 16.660001754760742 C5.620000839233398 16.660001754760742 6.193334102630615 16.593334197998047 6.7400007247924805 16.46000099182129 C7.3000006675720215 16.32666778564453 7.759999752044678 16.13333511352539 8.119999885559082 15.880001068115234 C8.479999542236328 15.626667976379395 8.660000801086426 15.326667785644531 8.660000801086426 14.980001449584961 C8.660000801086426 14.753334999084473 8.559999465942383 14.573335647583008 8.359999656677246 14.44000244140625 C8.15999984741211 14.306669235229492 7.880001068115234 14.240001678466797 7.52000093460083 14.240001678466797 C7.200000762939453 14.240001678466797 6.873333930969238 14.273335456848145 6.540000915527344 14.340002059936523 C6.206667423248291 14.393335342407227 5.793334007263184 14.480002403259277 5.3000006675720215 14.60000228881836 C4.873333930969238 14.720002174377441 4.506667137145996 14.806669235229492 4.200000286102295 14.860002517700195 C3.893333673477173 14.926669120788574 3.6066668033599854 14.960000991821289 3.3399999141693115 14.960000991821289 C2.7933332920074463 14.960000991821289 2.2866668701171875 14.866668701171875 1.820000171661377 14.680002212524414 C1.3666667938232422 14.480002403259277 1 14.213334083557129 0.7200000286102295 13.880001068115234 C0.4533333480358124 13.533334732055664 0.3199999928474426 13.140000343322754 0.3199999928474426 12.700000762939453 C0.3199999928474426 12.08666706085205 0.6266667246818542 11.553333282470703 1.2400001287460327 11.100000381469727 C1.8666667938232422 10.633333206176758 2.7266664505004883 10.226667404174805 3.819999933242798 9.880001068115234 L4.4800004959106445 10.460000991821289 C4.306667327880859 10.513334274291992 4.14666748046875 10.566667556762695 4.000000476837158 10.620000839233398 C3.6533336639404297 10.74000072479248 3.3933334350585938 10.873333930969238 3.2200000286102295 11.020000457763672 C3.0466666221618652 11.166666984558105 2.9600002765655518 11.366667747497559 2.9600002765655518 11.620000839233398 C2.9600002765655518 11.833333969116211 3.0466666221618652 11.99333381652832 3.2200000286102295 12.100000381469727 C3.4066667556762695 12.206666946411133 3.640000104904175 12.260000228881836 3.9200003147125244 12.260000228881836 C4.2266669273376465 12.260000228881836 4.546667098999023 12.24000072479248 4.880000591278076 12.200000762939453 C5.213333606719971 12.14666748046875 5.560000419616699 12.080001831054688 5.9200005531311035 12.000001907348633 C6.49333381652832 11.893335342407227 6.99333381652832 11.813333511352539 7.4200005531311035 11.760000228881836 C7.846667289733887 11.706666946411133 8.313334465026855 11.680000305175781 8.820000648498535 11.680000305175781 C9.713334083557129 11.680000305175781 10.453333854675293 11.893335342407227 11.039999961853027 12.320001602172852 C11.640000343322754 12.746667861938477 11.940000534057617 13.40000057220459 11.940000534057617 14.280000686645508 C11.940000534057617 15.293334007263184 11.5600004196167 16.153335571289062 10.800000190734863 16.860002517700195 C10.05333423614502 17.580001831054688 9.113334655761719 18.11333465576172 7.980000972747803 18.46000099182129 C6.846667289733887 18.82000160217285 5.7266669273376465 19.000001907348633 4.62000036239624 19.000001907348633 M5.460000514984131 11.30000114440918 C4.513333797454834 11.30000114440918 3.6733334064483643 11.14000129699707 2.940000057220459 10.820001602172852 C2.2200000286102295 10.486668586730957 1.6533334255218506 10.026667594909668 1.2400001287460327 9.440000534057617 C0.8400000333786011 8.853333473205566 0.6399999856948853 8.193333625793457 0.6399999856948853 7.460000514984131 C0.6399999856948853 6.7400007247924805 0.8400000333786011 6.093334197998047 1.2400001287460327 5.520000457763672 C1.6533334255218506 4.9333343505859375 2.2266669273376465 4.480000972747803 2.9600002765655518 4.160000324249268 C3.693333625793457 3.826667308807373 4.52666711807251 3.6600003242492676 5.460000514984131 3.6600003242492676 C6.033333778381348 3.6600003242492676 6.49333381652832 3.706667423248291 6.840000629425049 3.8000011444091797 C7.200000762939453 3.893334150314331 7.586667060852051 4.020000457763672 8 4.1800007820129395 C8.15999984741211 4.246667385101318 8.30666732788086 4.306667804718018 8.440000534057617 4.360001087188721 C8.58666706085205 4.40000057220459 8.726667404174805 4.4200005531311035 8.860000610351562 4.4200005531311035 C9.206666946411133 4.4200005531311035 9.453333854675293 4.300000190734863 9.600000381469727 4.059999942779541 C9.74666690826416 3.819999933242798 9.820000648498535 3.506666898727417 9.820000648498535 3.1200003623962402 L12.34000015258789 3.9200005531311035 C12.326666831970215 4.426667213439941 12.120000839233398 4.820000648498535 11.720000267028809 5.100000381469727 C11.333333969116211 5.3666672706604 10.819999694824219 5.500000476837158 10.180000305175781 5.500000476837158 C10.020000457763672 5.486667156219482 9.84000015258789 5.473334312438965 9.640000343322754 5.460000514984131 C10.066667556762695 6.046667098999023 10.280000686645508 6.713334083557129 10.280000686645508 7.460000514984131 C10.280000686645508 8.193333625793457 10.073333740234375 8.853333473205566 9.65999984741211 9.440000534057617 C9.260000228881836 10.026667594909668 8.693333625793457 10.486668586730957 7.960000514984131 10.820001602172852 C7.2266669273376465 11.14000129699707 6.393333911895752 11.30000114440918 5.460000514984131 11.30000114440918 M5.460000514984131 9.34000015258789 C5.793334007263184 9.34000015258789 6.086667537689209 9.260000228881836 6.340000629425049 9.100000381469727 C6.593333721160889 8.940000534057617 6.7866668701171875 8.720000267028809 6.9200005531311035 8.440000534057617 C7.053333759307861 8.14666748046875 7.12000036239624 7.820000648498535 7.12000036239624 7.460000514984131 C7.12000036239624 6.926667213439941 6.966667175292969 6.486667633056641 6.660000324249268 6.140000820159912 C6.3666672706604 5.793334007263184 5.966667175292969 5.620000839233398 5.460000514984131 5.620000839233398 C5.126667022705078 5.620000839233398 4.833333492279053 5.700001239776611 4.580000400543213 5.860001087188721 C4.326667308807373 6.02000093460083 4.126667022705078 6.2400007247924805 3.9800002574920654 6.52000093460083 C3.8466668128967285 6.80000114440918 3.7799999713897705 7.113333702087402 3.7799999713897705 7.460000514984131 C3.7799999713897705 8.006667137145996 3.9333336353302 8.460000991821289 4.240000247955322 8.820001602172852 C4.560000419616699 9.166667938232422 4.966667175292969 9.34000015258789 5.460000514984131 9.34000015258789" fill="rgb(17,17,17)" fill-rule="nonzero"/>
  <path d="M13.062811851501465 3.940000534057617 L16.22281265258789 3.940000534057617 L16.22281265258789 12.220001220703125 C16.22281265258789 13.166667938232422 16.269479751586914 14.033334732055664 16.36281394958496 14.820001602172852 L13.062811851501465 14.820001602172852 L13.062811851501465 3.940000534057617 M13.022811889648438 0 L16.242813110351562 0 L16.242813110351562 2.7800002098083496 L13.022811889648438 2.7800002098083496 L13.022811889648438 0" fill="rgb(17,17,17)" fill-rule="nonzero"/>
  <path d="M27.68281364440918 15.10000228881836 C26.829479217529297 15.10000228881836 26.162813186645508 14.853336334228516 25.68281364440918 14.360002517700195 C25.20281410217285 13.866668701171875 24.962814331054688 13.14666748046875 24.962814331054688 12.200000762939453 L24.962814331054688 7.880000591278076 C24.962814331054688 7.2400007247924805 24.809480667114258 6.760000228881836 24.5028133392334 6.440000057220459 C24.20948028564453 6.106666564941406 23.756145477294922 5.940000057220459 23.142812728881836 5.940000057220459 C22.5028133392334 5.940000057220459 21.882814407348633 6.1266679763793945 21.282814025878906 6.500001430511475 C20.68281364440918 6.873334884643555 20.162813186645508 7.42000150680542 19.72281265258789 8.14000129699707 L17.56281280517578 6.460000514984131 C18.322813034057617 5.5400004386901855 19.20281410217285 4.846667289733887 20.20281410217285 4.380000591278076 C21.216148376464844 3.9000003337860107 22.309478759765625 3.6600003242492676 23.482812881469727 3.6600003242492676 C24.576147079467773 3.6600003242492676 25.462814331054688 3.833333730697632 26.14281463623047 4.1800007820129395 C26.82281494140625 4.513333797454834 27.32281494140625 4.99333381652832 27.64281463623047 5.620000839233398 C27.962814331054688 6.233333587646484 28.122814178466797 6.960000514984131 28.122814178466797 7.8000006675720215 L28.122814178466797 12.30000114440918 C28.122814178466797 12.313334465026855 28.122814178466797 12.326666831970215 28.122814178466797 12.34000015258789 C28.122814178466797 12.34000015258789 28.122814178466797 12.346667289733887 28.122814178466797 12.360000610351562 C28.136146545410156 12.58666706085205 28.18947982788086 12.753334045410156 28.282814025878906 12.860000610351562 C28.37614631652832 12.966667175292969 28.509479522705078 13.020000457763672 28.68281364440918 13.020000457763672 C28.829479217529297 13.020000457763672 28.969480514526367 13.013335227966309 29.102813720703125 13.000001907348633 C29.249481201171875 12.973335266113281 29.402812957763672 12.933334350585938 29.56281280517578 12.880001068115234 L29.162813186645508 14.820001602172852 C28.936145782470703 14.913334846496582 28.696147918701172 14.980002403259277 28.442813873291016 15.020002365112305 C28.18947982788086 15.073335647583008 27.936147689819336 15.10000228881836 27.68281364440918 15.10000228881836 M21.162813186645508 15.10000228881836 C20.069480895996094 15.10000228881836 19.20281219482422 14.820002555847168 18.56281280517578 14.260002136230469 C17.936145782470703 13.686668395996094 17.622812271118164 12.95333480834961 17.622812271118164 12.060001373291016 C17.622812271118164 11.273334503173828 17.916147232055664 10.573334693908691 18.5028133392334 9.960000991821289 C19.089479446411133 9.333333969116211 19.962814331054688 8.826666831970215 21.122814178466797 8.440000534057617 C22.282814025878906 8.053333282470703 23.70948028564453 7.793334484100342 25.402812957763672 7.660001277923584 L25.402812957763672 9.660001754760742 C24.37614631652832 9.753334999084473 23.52947998046875 9.88666820526123 22.86281394958496 10.060001373291016 C22.20948028564453 10.2333345413208 21.71614646911621 10.45333480834961 21.3828125 10.720001220703125 C21.06281280517578 10.973334312438965 20.902812957763672 11.280001640319824 20.902812957763672 11.64000129699707 C20.902812957763672 11.933334350585938 21.009479522705078 12.173334121704102 21.22281265258789 12.360000610351562 C21.449480056762695 12.533333778381348 21.756145477294922 12.620000839233398 22.142812728881836 12.620000839233398 C22.662813186645508 12.620000839233398 23.136146545410156 12.506667137145996 23.56281280517578 12.280000686645508 C23.989479064941406 12.05333423614502 24.329479217529297 11.7333345413208 24.582813262939453 11.320001602172852 C24.83614730834961 10.906668663024902 24.962814331054688 10.420000076293945 24.962814331054688 9.860000610351562 L25.582813262939453 10.040000915527344 C25.582813262939453 10.89333438873291 25.429481506347656 11.70666790008545 25.122814178466797 12.480001449584961 C24.816146850585938 13.240001678466797 24.329479217529297 13.866668701171875 23.662813186645508 14.360002517700195 C23.009479522705078 14.853336334228516 22.1761474609375 15.10000228881836 21.162813186645508 15.10000228881836" fill="rgb(17,17,17)" fill-rule="nonzero"/>
  <path d="M30.42609405517578 3.940000534057617 L33.60609436035156 3.940000534057617 L33.60609436035156 6.5400004386901855 C34.03276062011719 5.620000839233398 34.539424896240234 4.913334369659424 35.12609100341797 4.4200005531311035 C35.7127571105957 3.9133341312408447 36.319427490234375 3.6600003242492676 36.94609451293945 3.6600003242492676 C37.319427490234375 3.6600003242492676 37.65275955200195 3.7200005054473877 37.94609451293945 3.840000629425049 C38.23942947387695 3.946667432785034 38.53275680541992 4.100000858306885 38.82609176635742 4.3000006675720215 L37.54609298706055 7.080000400543213 C37.26609420776367 6.893333911895752 37.01275634765625 6.760000705718994 36.78609085083008 6.6800007820129395 C36.559425354003906 6.586667060852051 36.2994270324707 6.5400004386901855 36.0060920715332 6.5400004386901855 C35.57942581176758 6.5400004386901855 35.186092376708984 6.6666669845581055 34.82609176635742 6.9200005531311035 C34.46609115600586 7.160000801086426 34.172760009765625 7.52666711807251 33.94609451293945 8.020000457763672 C33.71942901611328 8.513334274291992 33.60609436035156 9.106668472290039 33.60609436035156 9.80000114440918 L33.60609436035156 12.220001220703125 C33.60609436035156 13.166667938232422 33.65275955200195 14.033334732055664 33.74609375 14.820001602172852 L30.42609405517578 14.820001602172852 L30.42609405517578 3.940000534057617" fill="rgb(17,17,17)" fill-rule="nonzero"/>
  <path d="M43.60124969482422 15.10000228881836 C42.561248779296875 15.10000228881836 41.65458297729492 14.866668701171875 40.881248474121094 14.400001525878906 C40.107913970947266 13.920001983642578 39.50791549682617 13.253334999084473 39.08124923706055 12.400001525878906 C38.66791534423828 11.533334732055664 38.46125030517578 10.526667594909668 38.46125030517578 9.380001068115234 C38.46125030517578 8.2333345413208 38.66791534423828 7.233334064483643 39.08124923706055 6.380000591278076 C39.50791549682617 5.513333797454834 40.107913970947266 4.846667289733887 40.881248474121094 4.380000591278076 C41.65458297729492 3.9000003337860107 42.561248779296875 3.6600003242492676 43.60124969482422 3.6600003242492676 C44.3345832824707 3.6600003242492676 45.0212516784668 3.846667528152466 45.661251068115234 4.220000743865967 C46.30125045776367 4.593334197998047 46.82124710083008 5.1066670417785645 47.221248626708984 5.760000705718994 L47.221248626708984 0.5200004577636719 L50 0.5200004577636719 L50 12.220001220703125 C50 13.166667938232422 50.0533332824707 14.033334732055664 50.15999984741211 14.820001602172852 L47.221248626708984 14.820001602172852 L47.221248626708984 12.920000076293945 C46.8345832824707 13.600000381469727 46.32124710083008 14.133336067199707 45.68124771118164 14.520002365112305 C45.05458068847656 14.906668663024902 44.36124801635742 15.10000228881836 43.60124969482422 15.10000228881836 M41.80125045776367 9.380001068115234 C41.80125045776367 10.033334732055664 41.91458511352539 10.613333702087402 42.14125061035156 11.120000839233398 C42.367916107177734 11.613334655761719 42.68124771118164 12.000000953674316 43.08124923706055 12.280000686645508 C43.48125076293945 12.546667098999023 43.954586029052734 12.680000305175781 44.501251220703125 12.680000305175781 C44.99458312988281 12.680000305175781 45.447914123535156 12.539999961853027 45.86124801635742 12.260000228881836 C46.27458190917969 11.980000495910645 46.60124969482422 11.613335609436035 46.84124755859375 11.160001754760742 C47.094581604003906 10.69333553314209 47.221248626708984 10.199999809265137 47.221248626708984 9.680000305175781 L47.221248626708984 9.080001831054688 C47.221248626708984 8.533334732055664 47.094581604003906 8.033333778381348 46.84124755859375 7.580000400543213 C46.587913513183594 7.126667022705078 46.24791717529297 6.76666784286499 45.821250915527344 6.500001430511475 C45.40791702270508 6.220001220703125 44.967918395996094 6.080001354217529 44.501251220703125 6.080001354217529 C43.954586029052734 6.080001354217529 43.48125076293945 6.220001220703125 43.08124923706055 6.500001430511475 C42.68124771118164 6.76666784286499 42.367916107177734 7.153334617614746 42.14125061035156 7.660001277923584 C41.91458511352539 8.153334617614746 41.80125045776367 8.726667404174805 41.80125045776367 9.380001068115234" fill="rgb(17,17,17)" fill-rule="nonzero"/>
  <path d="M57.04343795776367 15.10000228881836 C56.03010559082031 15.10000228881836 55.130104064941406 14.860000610351562 54.34343719482422 14.380001068115234 C53.55677032470703 13.900001525878906 52.94343566894531 13.226667404174805 52.50343704223633 12.360000610351562 C52.0767707824707 11.49333381652832 51.86343765258789 10.500000953674316 51.86343765258789 9.380001068115234 C51.86343765258789 8.260001182556152 52.0767707824707 7.266667366027832 52.50343704223633 6.400000095367432 C52.94343566894531 5.5333333015441895 53.55677032470703 4.8600006103515625 54.34343719482422 4.380000591278076 C55.130104064941406 3.9000003337860107 56.03010559082031 3.6600003242492676 57.04343795776367 3.6600003242492676 C57.91010665893555 3.6600003242492676 58.696773529052734 3.893334150314331 59.403438568115234 4.360001087188721 C60.12343978881836 4.813333988189697 60.67677307128906 5.433333873748779 61.063438415527344 6.220000743865967 L61.063438415527344 0.5200004577636719 L62.88343811035156 0.5200004577636719 L62.88343811035156 12.220001220703125 C62.88343811035156 13.180001258850098 62.916770935058594 14.04666805267334 62.983436584472656 14.820001602172852 L61.063438415527344 14.820001602172852 L61.063438415527344 12.520000457763672 C60.69010543823242 13.30666732788086 60.143436431884766 13.933335304260254 59.42343521118164 14.400001525878906 C58.71677017211914 14.866668701171875 57.923439025878906 15.10000228881836 57.04343795776367 15.10000228881836 M53.82343673706055 9.380001068115234 C53.82343673706055 10.20666790008545 53.976768493652344 10.946666717529297 54.2834358215332 11.600000381469727 C54.59010314941406 12.24000072479248 55.01677322387695 12.74000072479248 55.563438415527344 13.100000381469727 C56.110103607177734 13.460000038146973 56.73677062988281 13.64000129699707 57.44343566894531 13.64000129699707 C58.110103607177734 13.64000129699707 58.71677017211914 13.466667175292969 59.26343536376953 13.120000839233398 C59.82343673706055 12.773334503173828 60.26343536376953 12.320000648498535 60.58343505859375 11.760000228881836 C60.90343475341797 11.186666488647461 61.063438415527344 10.560001373291016 61.063438415527344 9.880001068115234 L61.063438415527344 8.880001068115234 C61.063438415527344 8.200000762939453 60.89677047729492 7.573333740234375 60.563438415527344 7.000000476837158 C60.243438720703125 6.426667213439941 59.803436279296875 5.973334312438965 59.24343490600586 5.640000820159912 C58.69676971435547 5.293334007263184 58.09676742553711 5.120000839233398 57.44343566894531 5.120000839233398 C56.73677062988281 5.120000839233398 56.110103607177734 5.3000006675720215 55.563438415527344 5.660000324249268 C55.01677322387695 6.020000457763672 54.59010314941406 6.526667594909668 54.2834358215332 7.1800007820129395 C53.976768493652344 7.820000648498535 53.82343673706055 8.55333423614502 53.82343673706055 9.380001068115234" fill="rgb(17,17,17)" fill-rule="nonzero"/>
  <path d="M70.29593658447266 15.10000228881836 C69.30927276611328 15.10000228881836 68.39593505859375 14.89333438873291 67.55593872070312 14.480001449584961 C66.7159423828125 14.066668510437012 66.0426025390625 13.45333480834961 65.53593444824219 12.64000129699707 C65.0426025390625 11.826667785644531 64.79593658447266 10.84000015258789 64.79593658447266 9.680000305175781 C64.79593658447266 8.520000457763672 65.02926635742188 7.486667156219482 65.49593353271484 6.580000400543213 C65.97593688964844 5.660000324249268 66.6292724609375 4.946666717529297 67.45594024658203 4.440000057220459 C68.29593658447266 3.9200003147125244 69.249267578125 3.6600003242492676 70.31593322753906 3.6600003242492676 C71.40926361083984 3.6600003242492676 72.3359375 3.9066672325134277 73.09593963623047 4.40000057220459 C73.85594177246094 4.893333911895752 74.42926788330078 5.593334674835205 74.81593322753906 6.500001430511475 C75.21593475341797 7.393334865570068 75.41593933105469 8.440001487731934 75.41593933105469 9.64000129699707 L65.69593811035156 9.64000129699707 L65.69593811035156 8.220001220703125 L74.19593811035156 8.220001220703125 L73.53593444824219 8.80000114440918 C73.53593444824219 8.093335151672363 73.40927124023438 7.460001468658447 73.15593719482422 6.900001049041748 C72.90260314941406 6.326667785644531 72.52926635742188 5.880000591278076 72.03593444824219 5.560000419616699 C71.5559310913086 5.2400007247924805 70.98259735107422 5.080000877380371 70.31593322753906 5.080000877380371 C69.59593200683594 5.080000877380371 68.96260833740234 5.266667366027832 68.41593933105469 5.640000820159912 C67.88260650634766 6.000000953674316 67.46260070800781 6.526667594909668 67.15593719482422 7.220000743865967 C66.84927368164062 7.90000057220459 66.69593811035156 8.693333625793457 66.69593811035156 9.600000381469727 C66.69593811035156 10.520000457763672 66.86260223388672 11.28666877746582 67.19593811035156 11.900001525878906 C67.5292739868164 12.513335227966309 67.96926879882812 12.966667175292969 68.51593780517578 13.260000228881836 C69.06260681152344 13.539999961853027 69.66259765625 13.680000305175781 70.31593322753906 13.680000305175781 C71.26260375976562 13.680000305175781 72.04927062988281 13.433334350585938 72.67593383789062 12.940000534057617 C73.31593322753906 12.446666717529297 73.77593994140625 11.826668739318848 74.05593872070312 11.080001831054688 L75.57593536376953 12.14000129699707 C74.94927215576172 13.100001335144043 74.18927001953125 13.833334922790527 73.29593658447266 14.340002059936523 C72.40260314941406 14.846668243408203 71.40260314941406 15.10000228881836 70.29593658447266 15.10000228881836" fill="rgb(17,17,17)" fill-rule="nonzero"/>
  <path d="M81.82765197753906 15.10000228881836 C80.69432067871094 15.10000228881836 79.63431549072266 14.853336334228516 78.64765167236328 14.360002517700195 C77.67431640625 13.8533353805542 76.89432525634766 13.160000801086426 76.30765533447266 12.280000686645508 L77.66765594482422 11.160001754760742 C78.0409927368164 11.973335266113281 78.60099029541016 12.606668472290039 79.34765625 13.060001373291016 C80.10765838623047 13.513335227966309 80.9476547241211 13.740001678466797 81.8676528930664 13.740001678466797 C82.34765625 13.740001678466797 82.7743148803711 13.673334121704102 83.14765167236328 13.540000915527344 C83.52098846435547 13.39333438873291 83.81432342529297 13.193333625793457 84.02765655517578 12.940000534057617 C84.2409896850586 12.673334121704102 84.34765625 12.360001564025879 84.34765625 12.000001907348633 C84.34765625 11.613335609436035 84.20765686035156 11.293334007263184 83.92765808105469 11.040000915527344 C83.64765930175781 10.773334503173828 83.30098724365234 10.566666603088379 82.88765716552734 10.420000076293945 C82.48765563964844 10.260000228881836 81.92765808105469 10.086668014526367 81.20765686035156 9.900001525878906 C80.31432342529297 9.660001754760742 79.58765411376953 9.433334350585938 79.02765655517578 9.220001220703125 C78.48098754882812 8.99333381652832 78.00765991210938 8.673333168029785 77.60765838623047 8.260000228881836 C77.22099304199219 7.8466668128967285 77.02765655517578 7.300000190734863 77.02765655517578 6.62000036239624 C77.02765655517578 6.046667098999023 77.19432067871094 5.533334255218506 77.52765655517578 5.080000877380371 C77.86099243164062 4.626667499542236 78.33432006835938 4.280000686645508 78.9476547241211 4.0400004386901855 C79.56098937988281 3.7866671085357666 80.25432586669922 3.6600003242492676 81.02765655517578 3.6600003242492676 C82.00099182128906 3.6600003242492676 82.90098571777344 3.826667308807373 83.72765350341797 4.160000324249268 C84.5676498413086 4.4933342933654785 85.30765533447266 5.086667060852051 85.9476547241211 5.940000057220459 L84.58765411376953 7.060000896453857 C84.26765441894531 6.393333911895752 83.78099060058594 5.886667251586914 83.12765502929688 5.540000915527344 C82.47431945800781 5.193334579467773 81.76765441894531 5.02000093460083 81.00765228271484 5.02000093460083 C80.35431671142578 5.02000093460083 79.82098388671875 5.153334140777588 79.40765380859375 5.4200005531311035 C79.00765228271484 5.673333644866943 78.80765533447266 6.013333320617676 78.80765533447266 6.440000057220459 C78.80765533447266 6.7866668701171875 78.93431854248047 7.073334217071533 79.18765258789062 7.3000006675720215 C79.4543228149414 7.52666711807251 79.78099060058594 7.713334083557129 80.16765594482422 7.860001087188721 C80.5543212890625 7.9933342933654785 81.08099365234375 8.146668434143066 81.7476577758789 8.320001602172852 C82.68099212646484 8.573334693908691 83.43431854248047 8.813333511352539 84.00765228271484 9.040000915527344 C84.59432220458984 9.266667366027832 85.09432220458984 9.606667518615723 85.50765228271484 10.060001373291016 C85.93431854248047 10.500000953674316 86.14765930175781 11.086668014526367 86.14765930175781 11.820001602172852 C86.14765930175781 12.486668586730957 85.9543228149414 13.073335647583008 85.56765747070312 13.580001831054688 C85.18099212646484 14.073335647583008 84.6609878540039 14.45333480834961 84.00765228271484 14.720001220703125 C83.3676528930664 14.973334312438965 82.64098358154297 15.10000228881836 81.82765197753906 15.10000228881836" fill="rgb(17,17,17)" fill-rule="nonzero"/>
  <path d="M87.8359375 3.940000534057617 L89.65593719482422 3.940000534057617 L89.65593719482422 12.220001220703125 C89.65593719482422 13.180001258850098 89.68927001953125 14.04666805267334 89.75593566894531 14.820001602172852 L87.8359375 14.820001602172852 L87.8359375 3.940000534057617 M87.71593475341797 0.3600001335144043 L89.77593994140625 0.3600001335144043 L89.77593994140625 2.3000001907348633 L87.71593475341797 2.3000001907348633 L87.71593475341797 0.3600001335144043" fill="rgb(17,17,17)" fill-rule="nonzero"/>
  <path d="M95.29328155517578 19.000001907348633 C94.17327880859375 19.000001907348633 93.2132797241211 18.773334503173828 92.41327667236328 18.32000160217285 C91.61327362060547 17.866668701171875 91.2132797241211 17.200000762939453 91.2132797241211 16.32000160217285 C91.2132797241211 15.826667785644531 91.38661193847656 15.38666820526123 91.7332763671875 15.000001907348633 C92.07994079589844 14.613335609436035 92.5466079711914 14.28666877746582 93.1332778930664 14.020002365112305 C93.7199478149414 13.740002632141113 94.4199447631836 13.500000953674316 95.2332763671875 13.30000114440918 C95.39328002929688 13.260001182556152 95.53327941894531 13.226667404174805 95.65328216552734 13.200000762939453 L95.89328002929688 13.520000457763672 C95.27994537353516 13.720000267028809 94.76660919189453 13.933335304260254 94.35327911376953 14.160001754760742 C93.93994903564453 14.373334884643555 93.61328125 14.626668930053711 93.37328338623047 14.920001983642578 C93.13328552246094 15.213335037231445 93.0132827758789 15.560001373291016 93.0132827758789 15.960000991821289 C93.0132827758789 16.520000457763672 93.25994873046875 16.933334350585938 93.75328063964844 17.200000762939453 C94.25994873046875 17.46666717529297 94.88661193847656 17.60000228881836 95.6332778930664 17.60000228881836 C96.43328094482422 17.60000228881836 97.2132797241211 17.48000144958496 97.97328186035156 17.240001678466797 C98.74661254882812 17.000001907348633 99.37327575683594 16.660001754760742 99.85327911376953 16.220001220703125 C100.33328247070312 15.7933349609375 100.57328033447266 15.300002098083496 100.57328033447266 14.740001678466797 C100.57328033447266 14.3533353805542 100.43994903564453 14.053335189819336 100.17327880859375 13.840002059936523 C99.9066162109375 13.613335609436035 99.51995086669922 13.500001907348633 99.0132827758789 13.500001907348633 C98.69328308105469 13.500001907348633 98.34661865234375 13.540000915527344 97.97328186035156 13.620000839233398 C97.61328125 13.686667442321777 97.11994171142578 13.80000114440918 96.49327850341797 13.960000991821289 C95.97328186035156 14.106667518615723 95.53994750976562 14.220001220703125 95.19328308105469 14.30000114440918 C94.84661865234375 14.366667747497559 94.53994750976562 14.400001525878906 94.27327728271484 14.400001525878906 C93.79327392578125 14.400001525878906 93.34661102294922 14.333333969116211 92.93328094482422 14.200000762939453 C92.53327941894531 14.05333423614502 92.20661163330078 13.846668243408203 91.95327758789062 13.580001831054688 C91.7132797241211 13.300002098083496 91.59327697753906 12.973333358764648 91.59327697753906 12.600000381469727 C91.59327697753906 12.039999961853027 91.87328338623047 11.546667098999023 92.43328094482422 11.120000839233398 C92.99327850341797 10.680000305175781 93.74661254882812 10.333333015441895 94.69328308105469 10.079999923706055 L95.07328033447266 10.580001831054688 C94.79328155517578 10.660001754760742 94.55995178222656 10.74666690826416 94.37328338623047 10.84000015258789 C93.97328186035156 11 93.67994689941406 11.186668395996094 93.49327850341797 11.400001525878906 C93.30661010742188 11.600001335144043 93.2132797241211 11.820001602172852 93.2132797241211 12.060001373291016 C93.2132797241211 12.326667785644531 93.33328247070312 12.513334274291992 93.57328033447266 12.620000839233398 C93.81327819824219 12.726667404174805 94.12661743164062 12.780000686645508 94.5132827758789 12.780000686645508 C94.84661865234375 12.780000686645508 95.19328308105469 12.74666690826416 95.55328369140625 12.680000305175781 C95.91328430175781 12.600000381469727 96.32661437988281 12.500000953674316 96.79328155517578 12.380001068115234 C97.35327911376953 12.2333345413208 97.83328247070312 12.126667976379395 98.23328399658203 12.060001373291016 C98.64661407470703 11.980001449584961 99.07328033447266 11.940000534057617 99.5132827758789 11.940000534057617 C100.41995239257812 11.940000534057617 101.14661407470703 12.153335571289062 101.69328308105469 12.580001831054688 C102.23995208740234 13.006668090820312 102.5132827758789 13.626668930053711 102.5132827758789 14.44000244140625 C102.5132827758789 15.360002517700195 102.15328216552734 16.166669845581055 101.43328094482422 16.860002517700195 C100.72661590576172 17.553335189819336 99.81328582763672 18.080001831054688 98.69328308105469 18.44000244140625 C97.58661651611328 18.813335418701172 96.45328521728516 19.000001907348633 95.29328155517578 19.000001907348633 M96.37328338623047 11.180000305175781 C95.51995086669922 11.180000305175781 94.76661682128906 11.020000457763672 94.11328125 10.700000762939453 C93.45994567871094 10.366667747497559 92.94661712646484 9.913333892822266 92.57328033447266 9.34000015258789 C92.2132797241211 8.766667366027832 92.03327941894531 8.126667976379395 92.03327941894531 7.42000150680542 C92.03327941894531 6.713335037231445 92.2132797241211 6.073333740234375 92.57328033447266 5.500000476837158 C92.94661712646484 4.926667213439941 93.45994567871094 4.480000972747803 94.11328125 4.160000324249268 C94.77994537353516 3.826667308807373 95.53328704833984 3.6600003242492676 96.37328338623047 3.6600003242492676 C96.94661712646484 3.6600003242492676 97.4199447631836 3.7200005054473877 97.79328155517578 3.840000629425049 C98.16661834716797 3.96000075340271 98.55995178222656 4.12000036239624 98.97328186035156 4.320000171661377 C99.199951171875 4.440000057220459 99.39328002929688 4.533333778381348 99.55328369140625 4.600000381469727 C99.71328735351562 4.65333366394043 99.87995147705078 4.6800007820129395 100.05328369140625 4.6800007820129395 C100.45328521728516 4.6800007820129395 100.73995208740234 4.560000419616699 100.91328430175781 4.320000171661377 C101.0999526977539 4.066667079925537 101.19328308105469 3.7400007247924805 101.19328308105469 3.340001106262207 L102.7132797241211 3.8600001335144043 C102.69994354248047 4.393333911895752 102.49327850341797 4.80000114440918 102.09327697753906 5.080000877380371 C101.69327545166016 5.3600006103515625 101.22661590576172 5.500000476837158 100.69328308105469 5.500000476837158 C100.55995178222656 5.500000476837158 100.37995147705078 5.486667156219482 100.15328216552734 5.460000514984131 C100.53994750976562 6.020000457763672 100.73328399658203 6.67333459854126 100.73328399658203 7.42000150680542 C100.73328399658203 8.126667976379395 100.55328369140625 8.766667366027832 100.19328308105469 9.34000015258789 C99.83328247070312 9.913333892822266 99.3199462890625 10.366667747497559 98.65328216552734 10.700000762939453 C97.98661804199219 11.020000457763672 97.22661590576172 11.180000305175781 96.37328338623047 11.180000305175781 M96.37328338623047 9.960000991821289 C96.89328002929688 9.960000991821289 97.3399429321289 9.853334426879883 97.7132797241211 9.64000129699707 C98.08661651611328 9.413333892822266 98.37328338623047 9.106667518615723 98.57328033447266 8.720001220703125 C98.77327728271484 8.320001602172852 98.87328338623047 7.8866682052612305 98.87328338623047 7.42000150680542 C98.87328338623047 6.700001239776611 98.64661407470703 6.100000381469727 98.19328308105469 5.620000839233398 C97.75328063964844 5.126667499542236 97.14661407470703 4.880001068115234 96.37328338623047 4.880001068115234 C95.86661529541016 4.880001068115234 95.4199447631836 4.9933342933654785 95.03327941894531 5.220000743865967 C94.65994262695312 5.446667194366455 94.37327575683594 5.753334045410156 94.17327880859375 6.140000820159912 C93.98661041259766 6.513334274291992 93.89328002929688 6.940001487731934 93.89328002929688 7.42000150680542 C93.89328002929688 8.153334617614746 94.11328125 8.760001182556152 94.55328369140625 9.240001678466797 C95.0066146850586 9.720001220703125 95.61328125 9.960000991821289 96.37328338623047 9.960000991821289" fill="rgb(17,17,17)" fill-rule="nonzero"/>
  <path d="M104.0078125 3.940000534057617 L105.82781219482422 3.940000534057617 L105.82781219482422 7.100000858306885 C106.094482421875 6.420001029968262 106.47447967529297 5.820000648498535 106.96781158447266 5.3000006675720215 C107.46114349365234 4.78000020980835 108.02114868164062 4.380000591278076 108.64781188964844 4.100000858306885 C109.27447509765625 3.8066673278808594 109.91447448730469 3.6600003242492676 110.56781005859375 3.6600003242492676 C111.38114166259766 3.6600003242492676 112.06114196777344 3.820000410079956 112.6078109741211 4.140000343322754 C113.16780853271484 4.446667194366455 113.58114624023438 4.873333930969238 113.84780883789062 5.4200005531311035 C114.1278076171875 5.966667175292969 114.26781463623047 6.600000381469727 114.26781463623047 7.320000171661377 L114.26781463623047 12.220001220703125 C114.26781463623047 13.180001258850098 114.3011474609375 14.04666805267334 114.36781311035156 14.820001602172852 L112.44781494140625 14.820001602172852 L112.44781494140625 7.600000858306885 C112.44781494140625 6.8000006675720215 112.24781036376953 6.193333625793457 111.84780883789062 5.780000686645508 C111.46114349365234 5.366667747497559 110.84114074707031 5.160000801086426 109.98780822753906 5.160000801086426 C109.36114501953125 5.160000801086426 108.72114562988281 5.353334426879883 108.06781005859375 5.7400007247924805 C107.42781066894531 6.126667499542236 106.89447784423828 6.673334121704102 106.46781158447266 7.380000591278076 C106.04114532470703 8.073333740234375 105.82781219482422 8.880001068115234 105.82781219482422 9.80000114440918 L105.82781219482422 14.820001602172852 L104.0078125 14.820001602172852 L104.0078125 3.940000534057617" fill="rgb(17,17,17)" fill-rule="nonzero"/>
</svg>